<?xml version="1.0" standalone="yes"?>
<svg xmlns="http://www.w3.org/2000/svg" width="500" height="500">
<path style="fill:#090909; stroke:none;" d="M0 0L0 500L500 500L500 0L0 0z"/>
<path style="fill:#b7b7b7; stroke:none;" d="M313 227L311.329 227.241L310.841 227.407L309.84 227.7L307.976 228.533L307 229.059L305.059 230.248C303.885 231.056 302.758 231.96 302.028 233.21C301.006 234.959 301.041 237.043 301.005 239L300.999 243L300.985 245C300.953 246 300.941 247.009 300.772 247.999L300.258 249.985L299.258 251.907L297.772 253.671L296.891 254.471L295.956 255.211L293.996 256.535L292.999 257.135L290 258.85L287 260.603L282 263.576L277 266.424L270 270.576L264 274.011L260 276.397L257 278.134C256.014 278.671 255.023 279.173 254 279.636L253 280.026L251 280.555L249 280.62L247 280.17L246 279.782C244.632 279.157 243.314 278.446 242 277.715C239.296 276.211 236.668 274.578 234 273.011L229 270.15L226 268.421L221 265.576L214 261.424L209 258.575L206.001 256.756L204.019 255.39L203.059 254.621L202.148 253.79L201.318 252.896L200.028 250.985C199.543 250.043 199.295 249.041 199.148 248C199.009 247.008 199.023 245.998 199.005 245L199 242L199 237L199 208L199.001 202L199.059 199L199.148 198L199.318 197.001C199.52 195.945 200.01 194.931 200.603 194.043C201.738 192.346 203.357 191.069 205.005 189.904L207 188.619L209 187.428L212 185.769C213.339 185.039 214.693 184.336 216 183.548L221 180.449L225 178.15L228 176.421L232 174.15L236 171.85L241 168.99L244 167.244L245 166.709L247 165.833L248 165.542L250 165.346C251.034 165.377 252.035 165.644 253 165.998C254.405 166.514 255.698 167.279 257 168.005L260 169.719L263 171.424L270 175.576L273 177.281L278 180.15L282 182.424L289 186.576L292.999 188.865L294.985 190.104C296.594 191.217 298.153 192.452 299.258 194.093L300.258 196.015L300.772 198.001L300.956 200L301 204L301 212L301.034 215.975L301.16 217.84L301.358 218.841L301.415 219.329L302 221L303.671 220.545L305.16 219.92L307.02 218.959L309.84 217.41L311.329 216.673L313 216L313 196L312.999 193L312.981 191L312.852 189.004L312.682 188.015L311.972 186.093C311.253 184.774 310.147 183.67 308.941 182.789L306.995 181.465L303 179.15L295 174.424L290 171.576L287 169.799L283 167.424L279 165.15L275 162.85L271 160.576L263 155.85L260 154.15L258 153.005C257.012 152.454 256.034 151.878 255 151.414C253.727 150.841 252.397 150.395 251 150.257C249.651 150.124 248.303 150.281 247 150.641C245.611 151.025 244.292 151.646 243 152.274C239.894 153.785 236.967 155.638 234 157.397L228 160.85L224 163.15L221 164.861L218 166.684L215 168.551L210 171.421L207 173.15L202 176L195 180L193.004 181.154C191.098 182.284 189.076 183.381 187.742 185.213L186.742 187.043L186.228 189.004L186.109 190.001C186.039 191.002 186.018 191.997 186.004 193L186 197L186 205L186 237L186 248L186.001 252L186.015 254C186.067 255.645 186.099 257.361 186.742 258.907L187.742 260.671L189.228 262.215L190.109 262.907L192.015 264.185L194.001 265.396L197 267.15L200 268.85L203 270.579L207 272.85L210 274.579L214 276.861L217 278.684L220 280.551L225 283.421L228 285.15L232 287.421L235 289.15L239 291.424L242 293.185L243 293.756L245 294.775L246 295.181L247 295.497L249 295.824L251 295.769L252 295.605L253 295.361L255 294.637L256 294.176L258 293.134L261 291.397L265 289L271 285.424L276 282.576L283 278.427L290 274.573L293 272.799L298 269.8L302 267.424L305.999 265.135L306.995 264.535L308.941 263.211L309.852 262.471L310.682 261.671L311.972 259.907L312.682 257.985L312.852 256.996L312.981 255L312.999 253L313 249L313 227M279 206L279 228L278.999 232L278.981 233.999L278.852 235.985L278.682 236.957L277.972 238.79C276.849 240.712 274.824 241.853 272.995 242.996L271 244.2L266 247.15L262 249.424L257 252.396C256.007 252.977 255.017 253.552 254 254.09L253 254.568C252.042 254.971 251.05 255.3 250 255.332L249 255.287L248 255.077L246 254.276L244 253.184L242 252.01L237 249.15L233 246.85L230 245.15C228.66 244.378 227.305 243.617 226.019 242.756C225.071 242.121 224.103 241.459 223.318 240.621L222.028 238.896L221.318 236.985L221.148 235.996L221.059 234.999L221.005 233L221 231L221 227L220.996 224C220.982 223.002 220.961 222.012 220.891 221.015L220.772 220.043L220.258 218.21L219.258 216.61L218.566 215.904L216.891 214.62L215.956 214.019L214.001 212.905C213.078 212.426 212.137 212.008 211.16 211.65L209.671 211.229L208 211L208 234L208 238L208.005 241L208.059 242.999L208.148 243.996L208.603 245.957L209.603 247.79L211.148 249.39L212.059 250.096L213.019 250.756L215.001 251.985C216.973 253.179 219.007 254.268 221 255.424L228 259.576L232 261.85L236 264.15L241 267.01C242.325 267.781 243.627 268.605 245 269.291C246.264 269.922 247.577 270.485 249 270.62C250.017 270.717 251.017 270.598 252 270.333C253.051 270.049 254.031 269.578 255 269.095L257 267.985L260 266.201L263 264.424L267 262.15L271 259.85L275 257.576L282 253.424L284.999 251.715L286.981 250.535L288.852 249.211L289.682 248.471L290.397 247.671L291.397 245.907C291.891 244.675 291.937 243.306 291.981 241.999C292.026 240.668 291.999 239.332 292 238L292 224L292 209L291.956 204.001L291.891 203.004L291.566 201.043L290.821 199.21L290.258 198.379L289.566 197.61L287.891 196.244L285.985 195.019L284.996 194.444L283.999 193.906L283 193.417L282 193.009L280 192.498L279 192.427L277 192.681L275 193.367L274 193.825L273 194.324L270 196.012L267 197.8L262 200.799C260.675 201.592 259.35 202.387 258 203.138C256.691 203.866 255.369 204.585 254 205.197L252 205.99L251 206.255L249 206.369L247 205.882L246 205.452L244 204.38L242.002 203.189L238.16 200.792L237.159 200.198L236.671 199.887L235 199L236.671 197.554L237.159 197.209L238.16 196.45C239.741 195.391 241.346 194.371 243 193.429L245 192.328L246 191.84L248 191.074L249 190.851L250 190.78L252 191.052C253.655 191.469 255.255 192.252 257 192.192L258 192.088L259 191.821L260 191.427L261.995 190.407L263.955 189.319L265.841 188.269L266.329 188.014L268 187L267.346 185.442L266.39 184.219L264.851 182.88C263.61 181.99 262.314 181.2 260.999 180.425L258 178.72L256 177.594L254 176.533L253 176.09L251 175.523L250 175.438C248.99 175.422 247.944 175.633 247 175.985L246 176.367L244 177.324L242 178.428L238 180.8C234.682 182.789 231.389 184.828 228 186.694L224 188.872L223 189.452L219.001 191.939L217.019 193.143L216.059 193.731L215.148 194.323L214.319 194.954L213.608 195.634L212.662 197.209L212.466 199L212.662 199.91L213.047 200.791L213.608 201.611L215.148 203.046L217.019 204.265L220 206.011L226 209.576L229 211.281L233 213.579L238 216.424L240 217.6C241.325 218.374 242.644 219.148 244 219.865L245 220.351C246.248 220.947 247.616 221.426 249 221.555C250.016 221.65 251.009 221.564 252 221.322C253.045 221.067 254.029 220.627 255 220.175L257 219.135L260 217.421L265 214.576L271 211.011L275.84 208.2L276.841 207.546L277.329 207.246L279 206M142 345L146 345L146 333L151.025 338.021L153.998 340.891L155.975 342.566L157.84 343.815L159.329 344.529L161 345L161.585 343.329L161.642 342.841L161.84 341.84L161.966 339.975L162 335L162 326L158 326L158 338L151.995 332L150 330.059L148.005 328.337L147.019 327.662L146.059 327.176L145.148 326.921L143.603 327.176L142.603 328.337L142.318 329.153L142.148 330.059L142.019 332.005L142.001 334L142 337L142 345M165 326L165 330L173 330L173 341L165 341L165 345L185 345L185 341L177 341L177 330C178.056 329.987 179.089 329.999 180.141 329.941L180.986 329.853L182.687 329.421L183.971 328.556L184.41 327.844L185 326L165 326M208 345L208 341L192 341L192 330L208 330L208 326L200 326L196 326.005L194.005 326.059L193.019 326.148L192.059 326.318L190.318 327.028L189.603 327.603L189.028 328.318L188.318 330.059L188.148 331.019L188.059 332.005L188.005 334L188.004 336L188.015 337L188.044 337.999L188.228 339.981L188.742 341.852L189.742 343.397L190.434 343.972L192.109 344.682L193.044 344.852L194.015 344.941L196.001 344.995L200 345L208 345M224 345L228 345L228 337L239 337L239 345L243 345L243 337.998L242.995 334L242.941 332.005L242.852 331.019L242.682 330.059L241.972 328.318L241.397 327.603L239.852 326.603L237.981 326.148L236.995 326.059L235 326.005L233 326L231.001 326.005L229.019 326.059L227.148 326.318L226.318 326.603L225.603 327.028L225.028 327.603L224.318 329.148L224.148 330.059L224.059 331.019L224.005 333.001L224 337L224 345M246 326L246 345L250 345L250 337L251.671 337.654L253.16 338.61L255.025 340.13L256.005 341C257.265 342.087 258.498 343.212 259.995 343.972L261.955 344.682L262.84 344.852L264.329 344.98L266 345L266 341L263.846 340.69L262.864 340.421L261.136 339.556L260.154 338.844L259.67 338.512L258 337L259.671 336.98L261.141 336.852L261.986 336.682L263.687 335.972L264.971 334.682L265.663 332.942L265.793 331.015L265.663 330.058L265.392 329.148L264.971 328.318L263.682 327.028L261.941 326.318L260.981 326.148L259.995 326.059L258 326.005L254 326L246 326M269 326L269 330L277 330L277 345L281 345L281 330C282.056 329.987 283.089 329.999 284.141 329.941L284.986 329.853L286.687 329.421L287.971 328.556L288.41 327.844L289 326L269 326M312 345L312 341L296 341L296 337L312 337L312 333L296 333L296 330L312 330L312 326L304 326L300 326.005L298.005 326.059L297.019 326.148L296.059 326.318L294.318 327.028L293.603 327.603L293.028 328.318L292.603 329.148L292.148 331.019L292.019 333.001L292.002 335L292.015 336.999L292.044 337.996L292.228 339.956L292.742 341.772L293.742 343.258L294.434 343.821C295.21 344.355 296.129 344.607 297.044 344.772L298.015 344.891C299.012 344.961 300.002 344.982 301 344.996L304.998 345L312 345M315 345L319 345L319 337L331 337L331 345L335 345L335 337.998L334.995 334L334.941 332.005L334.852 331.019L334.682 330.059L333.972 328.318L333.397 327.603L331.852 326.603L329.981 326.148L328.995 326.059L326 326.001L324 326.001L322.001 326.019L320.019 326.148L318.148 326.603L317.318 327.028L316.603 327.603L316.028 328.318L315.318 330.059L315.148 331.019L315.059 332.005L315.005 334L315 337.998L315 345M338 345L342 345L342 330L346 330L346 345L350 345L350 330L354 330L354 345L357 345L357 337L356.995 333.001L356.941 331.019L356.852 330.059L356.682 329.148L355.972 327.603L355.397 327.028L354.682 326.603L353.852 326.318L351.981 326.059L349.999 326.005L348 326L346 326.005L344.005 326.059L343.019 326.148L341.148 326.603L339.603 327.603L339.028 328.318L338.318 330.059L338.148 331.019L338.059 332.005L338.005 334L338 337.998L338 345z"/>
<path style="fill:#090909; stroke:none;" d="M228 330L228 333L239 333L239 330L228 330M250 330L250 333L262 333L262 330L250 330M319 330L319 333L331 333L331 330L319 330z"/>
<path style="fill:#b7b7b7; stroke:none;" d="M211 333L211 337L220 337L220 333L211 333z"/>
</svg>
